<svg width="720" height="720" viewBox="0 0 720 720" xmlns="http://www.w3.org/2000/svg"><rect width="720" height="720" fill="#0089b6"/><path d="M 0,720 C 0,720 0,180 0,180 C 83.06666666666666,143.06666666666666 166.13333333333333,106.13333333333334 246,116 C 325.8666666666667,125.86666666666666 402.5333333333334,182.53333333333333 481,201 C 559.4666666666666,219.46666666666667 639.7333333333333,199.73333333333335 720,180 C 720,180 720,720 720,720 Z" fill="#003647" opacity="0.15"/><path d="M 0,720 C 0,720 0,360 0,360 C 84.53333333333333,331.06666666666666 169.06666666666666,302.1333333333333 244,313 C 318.93333333333334,323.8666666666667 384.26666666666665,374.53333333333336 462,389 C 539.7333333333333,403.46666666666664 629.8666666666667,381.73333333333335 720,360 C 720,360 720,720 720,720 Z" fill="#003647" opacity="0.3"/><path d="M 0,720 C 0,720 0,540 0,540 C 87.33333333333334,502 174.66666666666669,464 259,473 C 343.3333333333333,482 424.66666666666663,538 501,557 C 577.3333333333334,576 648.6666666666667,558 720,540 C 720,540 720,720 720,720 Z" fill="#003647" opacity="0.44999999999999996"/></svg>