<svg width="720" height="720" viewBox="0 0 720 720" xmlns="http://www.w3.org/2000/svg"><rect width="720" height="720" fill="#00b2ed"/><path d="M 0,720 C 0,720 0,180 0,180 C 90.4,159.60000000000002 180.8,139.20000000000002 258,151 C 335.2,162.79999999999998 399.20000000000005,206.79999999999998 474,217 C 548.8,227.20000000000002 634.4,203.60000000000002 720,180 C 720,180 720,720 720,720 Z" fill="#004b64" opacity="0.15"/><path d="M 0,720 C 0,720 0,360 0,360 C 56.66666666666666,341.20000000000005 113.33333333333331,322.40000000000003 201,331 C 288.6666666666667,339.59999999999997 407.33333333333337,375.6 499,385 C 590.6666666666666,394.4 655.3333333333333,377.2 720,360 C 720,360 720,720 720,720 Z" fill="#004b64" opacity="0.3"/><path d="M 0,720 C 0,720 0,540 0,540 C 57.866666666666674,506.1333333333333 115.73333333333335,472.2666666666667 203,477 C 290.26666666666665,481.7333333333333 406.9333333333333,525.0666666666667 498,542 C 589.0666666666667,558.9333333333333 654.5333333333333,549.4666666666667 720,540 C 720,540 720,720 720,720 Z" fill="#004b64" opacity="0.44999999999999996"/></svg>