<svg id="visual" viewBox="0 0 540 960" width="540" height="960" xmlns="http://www.w3.org/2000/svg" xmlns:xlink="http://www.w3.org/1999/xlink" version="1.1"><g><g transform="translate(176 705)"><path d="M0 -21.3L21.3 0L0 21.3L-21.3 0Z" fill="none" stroke="#006080" stroke-width="1"></path></g><g transform="translate(467 556)"><path d="M0 -20L20 0L0 20L-20 0Z" stroke="#006080" fill="none" stroke-width="1"></path></g><g transform="translate(471 255)"><path d="M0 -18L18 0L0 18L-18 0Z" stroke="#006080" fill="none" stroke-width="1"></path></g><g transform="translate(245 406)"><path d="M0 -18L18 0L0 18L-18 0Z" stroke="#006080" fill="none" stroke-width="1"></path></g><g transform="translate(450 698)"><path d="M0 -15L15 0L0 15L-15 0Z" stroke="#006080" fill="none" stroke-width="1"></path></g><g transform="translate(86 250)"><path d="M0 -20L20 0L0 20L-20 0Z" stroke="#006080" fill="none" stroke-width="1"></path></g><g transform="translate(306 173)"><path d="M0 -15L15 0L0 15L-15 0Z" stroke="#006080" fill="none" stroke-width="1"></path></g><g transform="translate(259 600)"><path d="M0 -19L19 0L0 19L-19 0Z" stroke="#006080" fill="none" stroke-width="1"></path></g><g transform="translate(32 525)"><path d="M0 -17L17 0L0 17L-17 0Z" stroke="#006080" fill="none" stroke-width="1"></path></g></g></svg>